<svg width="172" height="28" viewBox="0 0 172 28" fill="none" xmlns="http://www.w3.org/2000/svg">
<path d="M10.9778 6.53555L10.8015 25.2547L5.55372 25.2053L5.73005 6.48612L0.322286 6.43518L0.871337 2.50418L16.1347 2.64795L15.5856 6.57895L10.9778 6.53555ZM21.9936 11.5995C22.3242 10.4719 22.866 9.58099 23.6189 8.92672C24.3717 8.27245 25.2388 7.94994 26.2201 7.95918C27.2227 7.96862 28.1274 8.17982 28.9342 8.59277L27.7778 12.4541C27.1183 12.2558 26.5539 12.1545 26.0846 12.1501C25.2526 12.1423 24.4924 12.4444 23.804 13.0566C23.1368 13.6691 22.7976 14.5726 22.7864 15.7672L22.696 25.3668L17.8002 25.3206L17.9138 13.2572L17.6064 8.51807L21.3228 8.07306L21.8656 11.5983L21.9936 11.5995ZM37.4565 13.8573C37.4632 13.1533 37.3187 12.6399 37.023 12.3171C36.7276 11.973 36.1532 11.7969 35.2999 11.7889C34.4466 11.7808 33.0358 12.0769 31.0674 12.677L29.7198 9.65622C30.4489 9.25773 31.455 8.89386 32.7382 8.5646C34.0429 8.21421 35.3138 8.04484 36.5511 8.05649C37.8097 8.06835 38.8536 8.22752 39.6828 8.53401C40.5332 8.8407 41.137 9.29441 41.494 9.89513C41.8726 10.4747 42.1125 11.053 42.2137 11.63C42.3363 12.2072 42.3935 12.9331 42.3852 13.8077L42.3285 19.8234C42.3211 20.6127 42.3897 21.2534 42.5345 21.7455C42.7005 22.2377 43.0475 22.7743 43.5753 23.3553L40.767 25.921C40.2786 25.6817 39.8019 25.3252 39.3371 24.8515C38.8935 24.3779 38.567 23.9375 38.3575 23.5302L38.2295 23.529C36.9773 25.0959 35.402 25.8705 33.5034 25.8526C30.4315 25.8236 28.9105 24.2199 28.9405 21.0414C28.9564 19.3561 29.4482 18.102 30.416 17.2791C31.4051 16.4564 32.8185 15.8937 34.6561 15.591L37.4445 15.1372L37.4565 13.8573ZM33.5851 20.5731C33.5753 21.6184 34.125 22.1463 35.2343 22.1567C36.0876 22.1648 36.8157 21.8729 37.4186 21.2812L37.4469 18.2734C36.0798 18.4525 35.096 18.7099 34.4955 19.0456C33.8952 19.36 33.5917 19.8691 33.5851 20.5731ZM53.7794 8.34678L58.2544 8.90095L53.8723 25.6604L48.1446 25.6065L43.8553 8.73332L48.5956 8.29795L51.0015 21.2812L51.1934 21.283L53.7794 8.34678ZM67.0038 8.34333C69.137 8.36343 70.6994 8.96484 71.691 10.1476C72.5139 11.1154 73.0108 12.7201 73.1817 14.9618C73.2373 15.8584 73.2587 16.9786 73.2461 18.3226L70.9711 18.6212L64.3794 18.5591C64.3676 19.8177 64.5933 20.7692 65.0566 21.4136C65.5201 22.0366 66.3491 22.3538 67.5437 22.365C68.7597 22.3765 70.2239 22.0809 71.9363 21.4784L72.8999 24.4956C70.8625 25.6284 68.7451 26.1845 66.5479 26.1638C61.5775 26.117 59.12 23.1497 59.1754 17.262C59.2015 14.4888 59.8621 12.3082 61.1571 10.7204C62.4737 9.11137 64.4226 8.31902 67.0038 8.34333ZM68.0489 12.8974C67.8402 12.4047 67.3626 12.1549 66.6159 12.1478C65.8693 12.1408 65.3334 12.4131 65.0082 12.9647C64.6831 13.495 64.4942 14.304 64.4413 15.3915L68.3451 15.4283C68.3566 14.2123 68.2578 13.3687 68.0489 12.8974ZM80.4658 20.0547C80.456 21.0999 80.5127 21.8685 80.6361 22.3604C80.7808 22.8524 81.1273 23.4424 81.6755 24.1302L78.1312 26.689C77.1175 25.5914 76.4225 24.6354 76.0461 23.8212C75.6913 22.9858 75.5217 21.7468 75.5371 20.1042L75.7053 2.24902L80.6382 1.75146L80.4658 20.0547ZM90.9613 3.35277L99.153 3.42993C102.076 3.45746 104.085 4.16975 105.181 5.5668C106.129 6.81312 106.595 8.39624 106.576 10.3162C106.558 12.3001 105.955 14.0331 104.767 15.5153C104.141 16.3201 103.196 16.9619 101.933 17.4407C100.691 17.8984 99.196 18.119 97.4467 18.1025L96.0708 18.0895L95.9957 26.0572L90.7479 26.0078L90.9613 3.35277ZM96.1754 6.98604L96.1063 14.3137L97.8343 14.33C98.9222 14.3402 99.7035 14.0596 100.178 13.488C100.674 12.9167 100.928 12.0124 100.94 10.7751C100.952 9.51647 100.758 8.57594 100.358 7.95348C99.9589 7.33102 99.1406 7.01397 97.9033 7.00231L96.1754 6.98604ZM116.194 8.80668C117.368 8.81773 118.39 9.0087 119.261 9.37959C120.132 9.75048 120.811 10.2262 121.296 10.8068C121.802 11.3663 122.201 12.0634 122.492 12.8982C122.97 14.2681 123.199 15.945 123.181 17.9289C123.152 20.9794 122.277 23.2859 120.555 24.8485C119.243 26.0522 117.445 26.6432 115.162 26.6217C113.989 26.6107 112.967 26.4197 112.096 26.0488C111.225 25.6779 110.536 25.2128 110.029 24.6533C109.544 24.0727 109.145 23.3649 108.833 22.5299C108.355 21.2027 108.125 19.5258 108.144 17.4992C108.162 15.622 108.551 13.9722 109.311 12.55C110.636 10.0237 112.93 8.77593 116.194 8.80668ZM117.966 17.8158C117.984 15.8745 117.847 14.5292 117.556 13.7797C117.264 13.0089 116.628 12.6189 115.646 12.6097C114.687 12.6006 114.064 12.9575 113.78 13.6802C113.518 14.403 113.377 15.7244 113.359 17.6444C113.341 19.5643 113.478 20.9096 113.769 21.6804C114.061 22.4298 114.697 22.8092 115.678 22.8184C116.66 22.8277 117.282 22.4815 117.544 21.78C117.807 21.0571 117.947 19.7357 117.966 17.8158ZM129.801 12.615C130.132 11.4874 130.674 10.5965 131.427 9.9422C132.179 9.28793 133.047 8.96541 134.028 8.97466C135.03 8.9841 135.935 9.1953 136.742 9.60825L135.586 13.4695C134.926 13.2713 134.362 13.17 133.892 13.1656C133.06 13.1577 132.3 13.4599 131.612 14.0721C130.945 14.6845 130.605 15.588 130.594 16.7827L130.504 26.3822L125.608 26.3361L125.722 14.2727L125.414 9.53355L129.131 9.08853L129.673 12.6138L129.801 12.615ZM143.652 9.32132L147.972 9.36201L147.363 12.9084L143.619 12.8732L143.55 20.2008C143.54 21.2888 143.682 22.0475 143.977 22.477C144.271 22.9064 144.781 23.1246 145.506 23.1314C145.805 23.1342 146.414 23.0333 147.333 22.8286L148.171 25.6846C147.762 26.0008 147.098 26.2825 146.178 26.5299C145.28 26.7774 144.458 26.8977 143.711 26.8907C141.599 26.8708 140.217 26.3244 139.566 25.2515C138.937 24.1576 138.633 22.384 138.656 19.9307L138.723 12.8271L136.259 12.8038L136.737 9.6082L138.852 9.34011L139.074 6.14206L143.695 4.80952L143.652 9.32132ZM157.295 14.9861C157.302 14.2821 157.157 13.7687 156.861 13.4459C156.566 13.1018 155.992 12.9257 155.138 12.9177C154.285 12.9096 152.874 13.2057 150.906 13.8058L149.558 10.785C150.287 10.3865 151.293 10.0227 152.577 9.6934C153.881 9.343 155.152 9.17363 156.39 9.18529C157.648 9.19714 158.692 9.35632 159.521 9.66281C160.372 9.9695 160.975 10.4232 161.332 11.0239C161.711 11.6035 161.951 12.1818 162.052 12.7588C162.175 13.336 162.232 14.0619 162.224 14.9365L162.167 20.9522C162.16 21.7415 162.228 22.3822 162.373 22.8743C162.539 23.3665 162.886 23.9031 163.414 24.4841L160.605 27.0498C160.117 26.8105 159.64 26.454 159.175 25.9803C158.732 25.5067 158.405 25.0663 158.196 24.659L158.068 24.6578C156.816 26.2247 155.24 26.9993 153.342 26.9814C150.27 26.9524 148.749 25.3487 148.779 22.1702C148.795 20.4849 149.287 19.2308 150.254 18.4079C151.244 17.5852 152.657 17.0225 154.495 16.7198L157.283 16.266L157.295 14.9861ZM153.424 21.7019C153.414 22.7472 153.963 23.2751 155.073 23.2855C155.926 23.2935 156.654 23.0017 157.257 22.41L157.285 19.4022C155.918 19.5813 154.934 19.8387 154.334 20.1744C153.734 20.4888 153.43 20.9979 153.424 21.7019ZM170.118 20.8991C170.108 21.9444 170.165 22.713 170.288 23.2048C170.433 23.6969 170.78 24.2868 171.328 24.9747L167.783 27.5334C166.77 26.4358 166.075 25.4799 165.698 24.6657C165.344 23.8303 165.174 22.5913 165.189 20.9487L165.358 3.09349L170.29 2.59593L170.118 20.8991Z" fill="white"/>
</svg>
